<svg width="32" height="32" viewBox="0 0 32 32" fill="none" xmlns="http://www.w3.org/2000/svg">
<path d="M30.7409 12.0033C30.7458 12.0913 30.7394 12.1809 30.7173 12.2699L28.7434 20.1653C28.6439 20.563 28.2874 20.8427 27.8776 20.8449L16.0346 20.9047C16.033 20.9047 16.0316 20.9047 16.03 20.9047H4.18692C3.77492 20.9047 3.41593 20.624 3.3164 20.2242L1.34256 12.299C1.31984 12.2076 1.31326 12.1155 1.319 12.0252C0.555424 11.7846 0 11.0701 0 10.228C0 9.18908 0.845159 8.34392 1.88411 8.34392C2.92307 8.34392 3.76822 9.18908 3.76822 10.228C3.76822 10.8131 3.50014 11.3366 3.08037 11.6824L5.55161 14.1723C6.17618 14.8017 7.04287 15.1625 7.92954 15.1625C8.97794 15.1625 9.97754 14.6646 10.607 13.8305L14.6683 8.44919C14.3271 8.10826 14.1159 7.63717 14.1159 7.11775C14.1159 6.0788 14.961 5.23364 16 5.23364C17.039 5.23364 17.8841 6.0788 17.8841 7.11775C17.8841 7.62162 17.6841 8.07895 17.3607 8.41737C17.3618 8.41881 17.3631 8.42001 17.3642 8.42156L21.3961 13.8177C22.0253 14.6598 23.0285 15.1626 24.0799 15.1626C24.9747 15.1626 25.8162 14.8141 26.4489 14.1813L28.9357 11.6945C28.507 11.3488 28.2318 10.8203 28.2318 10.228C28.2318 9.18908 29.0769 8.34392 30.1159 8.34392C31.1548 8.34392 32 9.18908 32 10.228C32 11.0476 31.473 11.7447 30.7409 12.0033ZM28.5508 23.7159C28.5508 23.2204 28.1491 22.8187 27.6536 22.8187H4.44615C3.95065 22.8187 3.54895 23.2204 3.54895 23.7159V25.8692C3.54895 26.3646 3.95065 26.7664 4.44615 26.7664H27.6536C28.1491 26.7664 28.5508 26.3646 28.5508 25.8692V23.7159Z" fill="#FFA54B"/>
</svg>
