<svg width="28" height="28" viewBox="0 0 28 28" fill="none" xmlns="http://www.w3.org/2000/svg">
<path d="M14 0C6.28053 0 0 6.28053 0 14C0 21.7195 6.28053 28 14 28C21.7195 28 28 21.7195 28 14C28 6.28053 21.7195 0 14 0ZM14 4.44233C17.6988 4.44233 20.3494 7.09286 20.3494 10.7917C20.3494 14.4905 17.6988 17.141 14 17.141C10.3012 17.141 7.65062 14.4905 7.65062 10.7916C7.65062 7.0928 10.3012 4.44233 14 4.44233ZM14 25.6667C10.1879 25.6667 6.8075 23.8207 4.67726 20.9846C7.0111 19.8616 10.344 18.6666 14 18.6666C17.6562 18.6666 20.9894 19.8618 23.3228 20.9845C21.1926 23.8206 17.8122 25.6667 14 25.6667Z" fill="white"/>
</svg>
