<svg width="20" height="20" viewBox="0 0 20 20" fill="none" xmlns="http://www.w3.org/2000/svg">
<path d="M10 20.0004C15.5141 20.0004 20 15.5142 20 10.0001C20 4.48612 15.5141 0 10 0C4.48603 0 0 4.48612 0 10.0001C0 15.5142 4.48603 20.0004 10 20.0004ZM10 1.36894C14.7592 1.36894 18.6311 5.24087 18.6311 10.0001C18.6311 14.7594 14.7593 18.6313 10 18.6314C5.24087 18.6313 1.36904 14.7594 1.36904 10C1.36904 5.24096 5.24087 1.36894 10 1.36894Z" fill="#171753"/>
<path d="M8.65634 14.2825C8.92365 14.5498 9.35705 14.5497 9.62427 14.2825C9.89167 14.0151 9.89167 13.5818 9.62418 13.3144L6.99398 10.6843L14.6105 10.6836C14.9885 10.6835 15.2949 10.3771 15.2949 9.99893C15.2948 9.62092 14.9884 9.31464 14.6104 9.31464L6.99362 9.31538L9.62445 6.68472C9.89176 6.41741 9.89176 5.98391 9.62445 5.71669C9.49076 5.58309 9.31562 5.51619 9.1404 5.51619C8.96526 5.51619 8.79013 5.58309 8.65643 5.7166L4.85724 9.5157C4.72884 9.64401 4.65674 9.81805 4.65674 9.99966C4.65683 10.1813 4.72893 10.3552 4.85733 10.4838L8.65634 14.2825Z" fill="#171753"/>
</svg>
