<svg width="32" height="32" viewBox="0 0 32 32" fill="none" xmlns="http://www.w3.org/2000/svg">
<g clip-path="url(#clip0)">
<path d="M14.45 16C14.45 18.9998 13.641 21.7099 12.3396 23.6665C11.0376 25.6239 9.25271 26.8149 7.29822 26.8149C5.34374 26.8149 3.55886 25.6239 2.25687 23.6665C0.955478 21.7099 0.146484 18.9998 0.146484 16C0.146484 13.0003 0.955478 10.2901 2.25687 8.33363C3.55886 6.37622 5.34374 5.1852 7.29822 5.1852C9.25271 5.1852 11.0376 6.37622 12.3396 8.33363C13.641 10.2901 14.45 13.0003 14.45 16Z" fill="#DBDBDB" stroke="#030332" stroke-width="0.25"/>
<path d="M8.1026 24.2261C3.15536 24.2261 -0.205506 17.0759 1.11274 10.2364C-1.95463 17.6603 1.71474 26.9399 7.29829 26.9399C10.613 26.9399 13.4098 23.6077 14.2882 19.05C13.0045 22.1571 10.7144 24.2261 8.1026 24.2261Z" fill="#CECECE"/>
<path d="M6.29722 25.4346C9.76322 25.4346 12.573 21.2105 12.573 15.9999C12.573 10.7894 9.76322 6.56534 6.29722 6.56534C2.83123 6.56534 0.0214844 10.7894 0.0214844 15.9999C0.0214844 21.2105 2.83123 25.4346 6.29722 25.4346Z" fill="#F9F9F9"/>
<path d="M6.29705 25.4343C7.52949 25.4343 8.6788 24.8997 9.64849 23.9771C4.385 25.6895 -0.110933 18.6064 0.991127 10.9609C-1.61599 17.1526 1.33069 25.4343 6.29705 25.4343Z" fill="#DBDBDB"/>
<path d="M5.02731 18.8899C2.90138 20.1173 0.26832 18.6928 0.0386326 16.3269C-0.236242 13.4938 2.94831 11.6065 5.30212 13.2881C7.22943 14.6653 7.16518 17.6555 5.02731 18.8899Z" fill="#171753"/>
<path d="M1.43183 15.5229C1.3307 14.4812 1.72701 13.4745 2.43526 12.7941C0.86714 13.2455 -0.114608 14.7484 0.0386414 16.3273C0.301266 19.0343 3.62326 20.3723 5.68144 18.4007C4.24101 18.8182 1.63176 17.584 1.43183 15.5229Z" fill="#030332"/>
<path d="M31.8748 16C31.8748 18.9998 31.0658 21.7099 29.7644 23.6665C28.4624 25.6239 26.6775 26.8149 24.723 26.8149C22.7685 26.8149 20.9837 25.6239 19.6817 23.6665C18.3803 21.7099 17.5713 18.9998 17.5713 16C17.5713 13.0003 18.3803 10.2901 19.6817 8.33363C20.9837 6.37622 22.7685 5.1852 24.723 5.1852C26.6775 5.1852 28.4624 6.37622 29.7644 8.33363C31.0658 10.2901 31.8748 13.0003 31.8748 16Z" fill="#DBDBDB" stroke="#030332" stroke-width="0.25"/>
<path d="M25.5274 24.2261C20.5802 24.2261 17.2193 17.0759 18.5375 10.2364C15.4702 17.6603 19.1395 26.9399 24.7231 26.9399C28.0378 26.9399 30.8347 23.6077 31.713 19.05C30.4293 22.1571 28.1393 24.2261 25.5274 24.2261Z" fill="#CECECE"/>
<path d="M23.7215 25.4346C27.1875 25.4346 29.9973 21.2105 29.9973 15.9999C29.9973 10.7894 27.1875 6.56534 23.7215 6.56534C20.2555 6.56534 17.4458 10.7894 17.4458 15.9999C17.4458 21.2105 20.2555 25.4346 23.7215 25.4346Z" fill="#F9F9F9"/>
<path d="M23.7217 25.4343C24.9541 25.4343 26.1035 24.8998 27.0731 23.9771C21.7653 25.7041 17.3221 18.5481 18.4158 10.961C15.7707 17.243 18.8069 25.4343 23.7217 25.4343Z" fill="#DBDBDB"/>
<path d="M22.4521 18.8899C20.3304 20.1149 17.6936 18.6976 17.4634 16.3269C17.1886 13.4938 20.3731 11.6065 22.7269 13.2881C24.6543 14.6653 24.59 17.6555 22.4521 18.8899Z" fill="#171753"/>
<path d="M18.8566 15.5229C18.7555 14.4812 19.1518 13.4745 19.8601 12.7941C18.2919 13.2456 17.3102 14.7484 17.4634 16.3273C17.7265 19.0389 21.0519 20.3687 23.1062 18.4007C21.6659 18.8182 19.0566 17.584 18.8566 15.5229Z" fill="#030332"/>
</g>
<defs>
<clipPath id="clip0">
<rect width="32" height="32" fill="white"/>
</clipPath>
</defs>
</svg>
