<svg width="40" height="40" viewBox="0 0 40 40" fill="none" xmlns="http://www.w3.org/2000/svg">
    <g filter="url(#filter0_d)">
    <circle cx="20" cy="18" r="15.25" fill="#F5F5F5" stroke="#171753" stroke-width="1.5"/>
    <path fill-rule="evenodd" clip-rule="evenodd" d="M13.5484 21.9449C11.7343 21.747 10.3232 20.23 10.3232 18.3879C10.3232 16.4114 11.9478 14.8091 13.9519 14.8091L13.9652 14.8091C14.1727 11.7003 16.7951 9.24203 19.9997 9.24203C23.2042 9.24203 25.8266 11.7003 26.0341 14.8091L26.0473 14.8091C28.0514 14.8091 29.676 16.4114 29.676 18.3879C29.676 20.3645 28.0514 21.9668 26.0473 21.9668C26.0472 21.9668 26.0471 21.9668 26.047 21.9668V21.9669H13.5484V21.9449Z" fill="#BCF3EF"/>
    <path d="M26.4488 13.8269C25.7407 10.3227 22.2865 8.04832 18.7336 8.74672C16.135 9.25754 14.1031 11.2603 13.5836 13.8229C11.0645 14.1093 9.25752 16.3555 9.54767 18.8402C9.8148 21.1269 11.7785 22.8521 14.1124 22.8506H17.3921C17.7544 22.8506 18.0481 22.5609 18.0481 22.2036C18.0481 21.8463 17.7544 21.5566 17.3921 21.5566H14.1124C12.3009 21.5461 10.8414 20.0893 10.8519 18.3028C10.8626 16.5164 12.3397 15.0767 14.1511 15.0871C14.4854 15.0872 14.7663 14.8391 14.8031 14.5114C15.1361 11.6719 17.74 9.63633 20.619 9.96478C23.0394 10.241 24.9488 12.124 25.2287 14.5114C25.2837 14.8449 25.5767 15.0893 25.9194 15.0871C27.7308 15.0871 29.1992 16.5353 29.1992 18.3219C29.1992 20.1084 27.7308 21.5566 25.9194 21.5566H22.6397C22.2774 21.5566 21.9837 21.8463 21.9837 22.2036C21.9837 22.5609 22.2774 22.8506 22.6397 22.8506H25.9195C28.4553 22.835 30.4982 20.795 30.4825 18.2938C30.4681 16.0163 28.7409 14.1036 26.4488 13.8269Z" fill="#171753"/>
    <path d="M22.3342 20.2305C22.5859 20.4876 23.0012 20.4947 23.2618 20.2464C23.5223 19.9982 23.5295 19.5887 23.2779 19.3317C23.2726 19.3262 23.2672 19.321 23.2618 19.3158L20.4798 16.5714C20.2241 16.3183 19.8087 16.3179 19.5521 16.5701C19.5518 16.5706 19.5513 16.5709 19.551 16.5714L16.7691 19.3158C16.5085 19.5639 16.5013 19.9735 16.7529 20.2305C17.0047 20.4874 17.4199 20.4945 17.6805 20.2464C17.6859 20.2412 17.6914 20.2358 17.6967 20.2305L19.3595 18.5898V26.7324C19.3595 27.0897 19.6532 27.3793 20.0155 27.3793C20.3776 27.3793 20.6713 27.0897 20.6713 26.7324V18.5898L22.3342 20.2305Z" fill="#171753"/>
    </g>
    <defs>
    <filter id="filter0_d" x="0" y="0" width="40" height="40" filterUnits="userSpaceOnUse" color-interpolation-filters="sRGB">
    <feFlood flood-opacity="0" result="BackgroundImageFix"/>
    <feColorMatrix in="SourceAlpha" type="matrix" values="0 0 0 0 0 0 0 0 0 0 0 0 0 0 0 0 0 0 127 0"/>
    <feOffset dy="2"/>
    <feGaussianBlur stdDeviation="2"/>
    <feColorMatrix type="matrix" values="0 0 0 0 0 0 0 0 0 0 0 0 0 0 0 0 0 0 0.16 0"/>
    <feBlend mode="normal" in2="BackgroundImageFix" result="effect1_dropShadow"/>
    <feBlend mode="normal" in="SourceGraphic" in2="effect1_dropShadow" result="shape"/>
    </filter>
    </defs>
    </svg>
