<svg width="56" height="56" viewBox="0 0 56 56" fill="none" xmlns="http://www.w3.org/2000/svg">
	<path d="M20.208 21.9527C19.4532 20.257 20.5586 18.1184 22.6782 17.1748C23.6291 16.7358 24.6977 16.6209 25.7201 16.8478C26.0438 14.9387 27.7691 13.2638 30.1032 12.8118C32.9872 12.2518 35.7083 13.7639 36.1798 16.1948C36.6513 18.6258 34.6969 21.0466 31.8118 21.6072C30.4519 21.8898 29.0358 21.6778 27.8184 21.0091C27.3239 22.0454 26.4674 22.865 25.4104 23.3135C24.7705 23.6021 24.0773 23.7534 23.3754 23.7576C22.7291 23.7973 22.0853 23.6477 21.5227 23.3271C20.9602 23.0065 20.5033 22.5289 20.208 21.9527Z" fill="#FF4141" />
	<path d="M16.2721 28.2607L9.19039 22.3594L6.99072 28.2607L7.74165 30.8367L6.99072 32.8751L9.19039 40.1713L16.2721 33.3578V28.2607Z" fill="#FF4141" />
	<path d="M19.9959 42.8393C18.9459 41.0207 26.6254 34.162 26.6254 34.162L30.4189 40.541C30.4189 40.541 21.0459 44.658 19.9959 42.8393Z" fill="#FFA54B" />
	<path d="M32.1497 20.5889C41.5521 20.5889 49.1793 30.7344 49.1793 30.7344C49.1793 30.7344 41.5521 40.8799 32.1497 40.8799C22.7473 40.8799 15.1201 36.3377 15.1201 30.7344C15.1201 25.131 22.7445 20.5889 32.1497 20.5889Z" fill="#FFA54B" />
	<path d="M50.196 30.1282C49.9827 29.7872 45.1829 22.2322 37.5339 20.1131C37.9398 18.3491 37.6408 16.4962 36.7006 14.9494C36.1256 13.9686 35.3016 13.1572 34.3121 12.5973C33.3226 12.0374 32.2027 11.7489 31.0658 11.7611C29.929 11.7733 28.8155 12.0856 27.8382 12.6666C26.8609 13.2475 26.0545 14.0764 25.5006 15.0692C20.7283 14.5652 17.1566 19.3314 18.5762 23.8909C17.5032 24.62 16.5424 25.5018 15.7241 26.5084C13.7444 25.0091 12.0459 23.1712 10.7071 21.0797C10.6008 20.9162 10.4592 20.7787 10.2926 20.6772C10.1261 20.5757 9.93891 20.513 9.74487 20.4935C9.55084 20.474 9.35492 20.4984 9.17155 20.5648C8.98819 20.6311 8.82207 20.7378 8.68545 20.877C5.84065 23.761 4.42385 27.5348 6.80945 30.859C4.42441 34.1798 5.84009 37.9536 8.68489 40.8382C8.82151 40.9773 8.98763 41.084 9.17099 41.1504C9.35436 41.2168 9.55028 41.2411 9.74431 41.2217C9.93835 41.2022 10.1255 41.1395 10.2921 41.038C10.4586 40.9365 10.6002 40.799 10.7065 40.6355C12.0479 38.5396 13.7508 36.6984 15.7359 35.1979C17.1661 36.8588 18.9203 38.2103 20.8912 39.1694C20.3376 39.8764 19.6663 40.4826 18.9066 40.9614C18.7003 41.0886 18.5323 41.2693 18.4205 41.4844C18.3088 41.6994 18.2574 41.9407 18.2719 42.1827C18.2864 42.4246 18.3661 42.6581 18.5028 42.8583C18.6394 43.0585 18.8277 43.2179 19.0477 43.3196C20.8676 44.1126 22.8675 44.4011 24.8374 44.1548C26.8073 43.9085 28.6746 43.1364 30.2432 41.9195C31.354 42.0496 32.4714 42.1152 33.5898 42.1161C37.7164 42.1161 41.9041 40.2788 45.6998 36.8017C47.4083 35.2445 48.9183 33.4825 50.1955 31.5556C50.3291 31.342 50.3999 31.095 50.3999 30.843C50.3999 30.591 50.3291 30.3441 50.1955 30.1304L50.196 30.1282ZM25.8847 17.8463C26.2023 17.9371 26.5424 17.9045 26.8369 17.7549C27.1314 17.6053 27.3584 17.3499 27.4723 17.0399C27.7406 16.2795 28.2365 15.6202 28.8925 15.1514C29.5485 14.6826 30.3329 14.4271 31.1392 14.4196C33.8743 14.4196 35.5935 17.1687 34.9422 19.6377C30.1079 19.36 25.2842 20.3408 20.9422 22.4842C20.5015 19.6528 23.0019 17.0119 25.8847 17.8463ZM9.50809 37.7515C8.94079 37.0238 8.53459 36.184 8.31641 35.2875C8.18112 34.6563 8.21609 34.0006 8.41772 33.3874C8.61935 32.7743 8.9804 32.2258 9.46385 31.7981C9.71045 31.5468 9.84859 31.2088 9.84859 30.8568C9.84859 30.5047 9.71045 30.1667 9.46385 29.9154C8.98057 29.4881 8.61954 28.94 8.41772 28.3272C8.21591 27.7145 8.18056 27.0592 8.31529 26.4283C8.53314 25.5306 8.93935 24.6896 9.50697 23.9609C10.8858 25.827 12.5418 27.4713 14.4176 28.8368C13.9571 30.1434 13.9587 31.5683 14.4221 32.8739C12.5445 34.2399 10.8869 35.8852 9.50697 37.7526L9.50809 37.7515ZM43.8921 34.8686C40.5545 37.9088 37.0892 39.45 33.5926 39.45C33.2527 39.45 32.9111 39.4421 32.5683 39.4287C33.6802 37.7778 34.4625 35.9276 34.8722 33.9799C34.9517 33.6377 34.8929 33.278 34.7085 32.979C34.5241 32.68 34.2291 32.4659 33.8877 32.3833C33.7188 32.3445 33.5439 32.3396 33.3731 32.3687C33.2023 32.3979 33.039 32.4605 32.8925 32.5531C32.746 32.6456 32.6193 32.7662 32.5196 32.908C32.42 33.0498 32.3494 33.2098 32.3119 33.379C31.5116 36.8952 29.7672 39.4219 27.2679 40.6853C25.7509 41.4461 24.0396 41.7315 22.3579 41.504C23.8987 39.7533 25.0536 37.6978 25.7475 35.4712C25.8459 35.1343 25.8074 34.7722 25.6406 34.4634C25.4737 34.1547 25.1918 33.9242 24.856 33.822C24.6898 33.7734 24.5157 33.7583 24.3436 33.7774C24.1715 33.7965 24.0049 33.8495 23.8534 33.9333C23.7019 34.0171 23.5685 34.1301 23.4609 34.2657C23.3533 34.4014 23.2736 34.557 23.2264 34.7236C22.9855 35.4774 22.6832 36.2103 22.3226 36.9148C19.9146 35.7276 18.1131 34.2447 17.2568 32.7512C17.2397 32.712 17.2189 32.6745 17.1947 32.6392C16.8668 32.0878 16.6958 31.4574 16.7001 30.8159C16.7043 30.1744 16.8836 29.5463 17.2187 28.9992C19.8071 24.3288 29.7706 21.4684 35.5755 22.3974C40.2616 23.1478 44.6649 26.9519 47.4873 30.8405C46.4258 32.3002 45.2206 33.6499 43.8899 34.8692L43.8921 34.8686Z" fill="#171753" />
	<path d="M39.9231 26.9038C39.7429 26.7833 39.5357 26.7092 39.3199 26.688C39.1042 26.6667 38.8865 26.699 38.6862 26.782C38.486 26.865 38.3092 26.9961 38.1717 27.1637C38.0342 27.3313 37.9401 27.5302 37.8979 27.7429C37.8556 27.9555 37.8664 28.1753 37.9294 28.3827C37.9923 28.5902 38.1055 28.7789 38.2588 28.9322C38.4121 29.0854 38.6009 29.1985 38.8084 29.2614C39.0159 29.3243 39.2356 29.3351 39.4483 29.2927C39.7038 29.2416 39.9384 29.1159 40.1225 28.9315C40.3067 28.7471 40.4321 28.5123 40.4829 28.2567C40.5337 28.0011 40.5076 27.7362 40.408 27.4954C40.3084 27.2546 40.1397 27.0488 39.9231 26.9038Z" fill="#171753" />
</svg>
