<svg width="68" height="68" viewBox="0 0 68 68" fill="none" xmlns="http://www.w3.org/2000/svg">
<circle cx="34" cy="34" r="34" fill="white"/>
<path d="M42.3347 34.3816C42.3347 32.9256 43.4996 31.7607 44.9558 31.7607C46.412 31.7607 47.5769 32.9256 47.5769 34.3816C47.5769 35.8376 46.412 37.0024 44.9558 37.0024C43.4996 37.0024 42.3347 35.7891 42.3347 34.3816Z" fill="#171753"/>
<path d="M58.1585 40.7395C58.0614 41.5646 57.9643 42.3897 57.7216 43.1662C56.9935 45.9326 55.3918 48.4564 52.7707 49.8639C49.1788 51.7081 44.9074 51.0287 41.3155 49.6212C38.3546 51.7081 38.3546 51.7082 38.3546 51.7082C37.6751 52.145 36.8014 51.4169 37.1897 50.6889C36.3645 50.8345 36.1218 50.058 36.3645 49.4271C35.685 49.9609 35.1025 48.9903 35.4908 48.4079C35.7335 48.0196 36.1218 47.5828 36.4131 47.243C32.2387 44.8649 28.4527 41.9529 24.6181 39.0894C26.8024 40.4483 35.5394 44.9134 37.6751 45.8356C39.9079 46.8062 42.1407 47.7769 44.4705 48.3108C46.4121 48.7476 48.8876 48.9903 50.6835 47.874C52.3338 46.9033 52.9648 44.9134 53.2075 43.1177C53.79 39.235 52.4309 34.8669 50.3923 31.5666C48.2565 28.1207 44.7618 25.0145 40.7816 23.9953C39.3254 23.6071 37.8692 23.6071 36.5101 23.8497C33.3551 24.3836 30.4913 26.325 28.3071 28.7517C25.1521 32.2461 22.9678 36.5656 20.9777 40.8366C19.6186 43.7001 17.7256 50.6889 13.26 47.9225C11.27 46.6606 10.0079 44.4766 9.13424 42.3411C8.16347 40.06 7.48392 37.0024 8.11493 34.5272C9.47401 29.3341 16.7548 33.9448 19.2303 35.5949C19.0847 35.5464 13.26 32.877 11.1243 34.964C10.1536 35.9347 10.2021 37.6819 10.3477 38.9438C10.6389 41.2248 11.7553 44.6222 13.891 45.8841C16.6578 47.4857 18.0654 42.4867 18.7935 40.7395C20.0069 37.7789 21.1719 34.8184 22.531 31.9064C24.0357 28.7031 25.8316 25.5484 28.3071 22.9761C27.7732 22.3452 26.9965 21.5686 26.948 20.7436C26.8509 19.8214 27.7732 18.8022 28.7439 19.2876C27.6275 18.0257 29.1322 16.1329 30.5884 16.8609C29.9089 15.7931 30.9767 14.4342 32.0931 14.4827C32.7241 14.4827 33.3551 15.0166 33.8405 15.3563C35.1025 16.1814 36.3645 17.055 37.6751 17.8801C49.7613 15.9873 59.2263 29.7223 58.1585 40.7395Z" fill="url(#paint0_linear)"/>
<defs>
<linearGradient id="paint0_linear" x1="7.87036" y1="33.1607" x2="58.2407" y2="33.1607" gradientUnits="userSpaceOnUse">
<stop stop-color="#030332"/>
<stop offset="1" stop-color="#171753"/>
</linearGradient>
</defs>
</svg>
