<svg width="64" height="64" viewBox="0 0 64 64" fill="none" xmlns="http://www.w3.org/2000/svg">
<path d="M35.0625 25.5C35.0625 26.0176 35.4824 26.4375 36 26.4375H37.5625V37.5625H26.4375V26.4375H36.0625C36.5801 26.4375 37 26.0176 37 25.5C37 24.9824 36.5801 24.5625 36.0625 24.5625H26C25.2075 24.5625 24.5625 25.2075 24.5625 26V38C24.5625 38.7925 25.2075 39.4375 26 39.4375H38C38.7925 39.4375 39.4375 38.7925 39.4375 38V26C39.4375 25.2075 38.7925 24.5625 38 24.5625H36C35.4824 24.5625 35.0625 24.9824 35.0625 25.5Z" fill="black"/>
<path d="M5.1875 3.75C4.39502 3.75 3.75 4.39502 3.75 5.1875V11.6875C3.75 12.48 4.39502 13.125 5.1875 13.125H11.6875C12.48 13.125 13.125 12.48 13.125 11.6875V5.1875C13.125 4.39502 12.48 3.75 11.6875 3.75H5.1875ZM11.25 11.25H5.625V5.625H11.25V11.25Z" fill="black"/>
<path d="M11.6875 50.875H5.1875C4.39502 50.875 3.75 51.52 3.75 52.3125V58.8125C3.75 59.605 4.39502 60.25 5.1875 60.25H11.6875C12.48 60.25 13.125 59.605 13.125 58.8125V52.3125C13.125 51.52 12.48 50.875 11.6875 50.875ZM11.25 58.375H5.625V52.75H11.25V58.375Z" fill="black"/>
<path d="M49.5625 16.875H61.5625C62.9067 16.875 64 15.7817 64 14.4375V2.4375C64 1.09326 62.9067 0 61.5625 0H49.5625C48.2183 0 47.125 1.09326 47.125 2.4375V7.5H35.875C35.3574 7.5 34.9375 7.91992 34.9375 8.4375V20.8125H29.8125V17.1514C30.9038 16.7642 31.6875 15.7222 31.6875 14.5C31.6875 12.9492 30.4258 11.6875 28.875 11.6875C27.3242 11.6875 26.0625 12.9492 26.0625 14.5C26.0625 15.7222 26.8462 16.7642 27.9375 17.1514V20.8125H23.749C22.1299 20.8125 20.8125 22.1299 20.8125 23.749V29.1875H9.375V16.875H14.4375C15.7817 16.875 16.875 15.7817 16.875 14.4375V12C16.875 11.4824 16.4551 11.0625 15.9375 11.0625C15.4199 11.0625 15 11.4824 15 12V14.4375C15 14.7476 14.7476 15 14.4375 15H2.4375C2.12744 15 1.875 14.7476 1.875 14.4375V2.4375C1.875 2.12744 2.12744 1.875 2.4375 1.875H14.4375C14.7476 1.875 15 2.12744 15 2.4375V12.5625C15 13.0801 15.4199 13.5 15.9375 13.5C16.4551 13.5 16.875 13.0801 16.875 12.5625V2.4375C16.875 1.09326 15.7817 0 14.4375 0H2.4375C1.09326 0 0 1.09326 0 2.4375V14.4375C0 15.7817 1.09326 16.875 2.4375 16.875H7.5V30.125C7.5 30.6426 7.91992 31.0625 8.4375 31.0625H20.8125V35.0625H19.5264C19.1392 33.9712 18.0972 33.1875 16.875 33.1875C15.3242 33.1875 14.0625 34.4492 14.0625 36C14.0625 37.5508 15.3242 38.8125 16.875 38.8125C18.0972 38.8125 19.1392 38.0288 19.5264 36.9375H20.8125V40.251C20.8125 41.8701 22.1299 43.1875 23.749 43.1875H27.9375V54.3232H16.875V49.5625C16.875 48.2183 15.7817 47.125 14.4375 47.125H2.4375C1.09326 47.125 0 48.2183 0 49.5625V61.5625C0 62.9067 1.09326 64 2.4375 64H14.4375C15.7817 64 16.875 62.9067 16.875 61.5625V56.1982H28.875C29.3926 56.1982 29.8125 55.7783 29.8125 55.2607V43.1875H34.9375V47.3486C33.8462 47.7358 33.0625 48.7778 33.0625 50C33.0625 51.5508 34.3242 52.8125 35.875 52.8125C37.4258 52.8125 38.6875 51.5508 38.6875 50C38.6875 48.7778 37.9038 47.7358 36.8125 47.3486V43.1875H40.251C41.8701 43.1875 43.1875 41.8701 43.1875 40.251V33.8687H54.6265V47.125H49.5625C48.2183 47.125 47.125 48.2183 47.125 49.5625V52C47.125 52.5176 47.5449 52.9375 48.0625 52.9375C48.5801 52.9375 49 52.5176 49 52V49.5625C49 49.2524 49.2524 49 49.5625 49H61.5625C61.8726 49 62.125 49.2524 62.125 49.5625V61.5625C62.125 61.8726 61.8726 62.125 61.5625 62.125H49.5625C49.2524 62.125 49 61.8726 49 61.5625V51.4375C49 50.9199 48.5801 50.5 48.0625 50.5C47.5449 50.5 47.125 50.9199 47.125 51.4375V61.5625C47.125 62.9067 48.2183 64 49.5625 64H61.5625C62.9067 64 64 62.9067 64 61.5625V49.5625C64 48.2183 62.9067 47.125 61.5625 47.125H56.5015V32.9312C56.5015 32.4136 56.0815 31.9937 55.564 31.9937H43.1875V28.8125H47.6548C48.042 29.9038 49.084 30.6875 50.3062 30.6875C51.8569 30.6875 53.1187 29.4258 53.1187 27.875C53.1187 26.3242 51.8569 25.0625 50.3062 25.0625C49.084 25.0625 48.042 25.8462 47.6548 26.9375H43.1875V23.749C43.1875 22.1299 41.8701 20.8125 40.251 20.8125H36.8125V9.375H47.125V14.4375C47.125 15.7817 48.2183 16.875 49.5625 16.875ZM28.875 13.5625C29.3921 13.5625 29.8125 13.9829 29.8125 14.5C29.8125 15.0171 29.3921 15.4375 28.875 15.4375C28.3579 15.4375 27.9375 15.0171 27.9375 14.5C27.9375 13.9829 28.3579 13.5625 28.875 13.5625ZM16.875 36.9375C16.3579 36.9375 15.9375 36.5171 15.9375 36C15.9375 35.4829 16.3579 35.0625 16.875 35.0625C17.3921 35.0625 17.8125 35.4829 17.8125 36C17.8125 36.5171 17.3921 36.9375 16.875 36.9375ZM15 61.5625C15 61.8726 14.7476 62.125 14.4375 62.125H2.4375C2.12744 62.125 1.875 61.8726 1.875 61.5625V49.5625C1.875 49.2524 2.12744 49 2.4375 49H14.4375C14.7476 49 15 49.2524 15 49.5625V61.5625ZM35.875 50.9375C35.3579 50.9375 34.9375 50.5171 34.9375 50C34.9375 49.4829 35.3579 49.0625 35.875 49.0625C36.3921 49.0625 36.8125 49.4829 36.8125 50C36.8125 50.5171 36.3921 50.9375 35.875 50.9375ZM50.3062 26.9375C50.8232 26.9375 51.2437 27.3579 51.2437 27.875C51.2437 28.3921 50.8232 28.8125 50.3062 28.8125C49.7891 28.8125 49.3687 28.3921 49.3687 27.875C49.3687 27.3579 49.7891 26.9375 50.3062 26.9375ZM41.3125 23.749V40.251C41.3125 40.8364 40.8364 41.3125 40.251 41.3125H23.749C23.1636 41.3125 22.6875 40.8364 22.6875 40.251V23.749C22.6875 23.1636 23.1636 22.6875 23.749 22.6875H40.251C40.8364 22.6875 41.3125 23.1636 41.3125 23.749ZM49.5625 1.875H61.5625C61.8726 1.875 62.125 2.12744 62.125 2.4375V14.4375C62.125 14.7476 61.8726 15 61.5625 15H49.5625C49.2524 15 49 14.7476 49 14.4375V8.46191C49.0005 8.45361 49.0015 8.4458 49.0015 8.4375C49.0015 8.4292 49.0005 8.42139 49 8.41309V2.4375C49 2.12744 49.2524 1.875 49.5625 1.875Z" fill="black"/>
<path d="M52.3125 13.125H58.8125C59.605 13.125 60.25 12.48 60.25 11.6875V5.1875C60.25 4.39502 59.605 3.75 58.8125 3.75H52.3125C51.52 3.75 50.875 4.39502 50.875 5.1875V11.6875C50.875 12.48 51.52 13.125 52.3125 13.125ZM52.75 5.625H58.375V11.25H52.75V5.625Z" fill="black"/>
<path d="M58.8125 60.25C59.605 60.25 60.25 59.605 60.25 58.8125V52.3125C60.25 51.52 59.605 50.875 58.8125 50.875H52.3125C51.52 50.875 50.875 51.52 50.875 52.3125V58.8125C50.875 59.605 51.52 60.25 52.3125 60.25H58.8125ZM52.75 52.75H58.375V58.375H52.75V52.75Z" fill="black"/>
</svg>
