<svg width="64" height="64" viewBox="0 0 64 64" fill="none" xmlns="http://www.w3.org/2000/svg">
<path d="M63.8935 29.1301L63.893 29.128C63.8758 29.0475 63.85 28.967 63.8164 28.8896L55.1922 9.10504C54.9932 8.64842 54.5428 8.3534 54.0447 8.3534H43.5296V1.42472C43.5296 0.639165 42.8905 0 42.1048 0H21.8951C21.1094 0 20.4702 0.639165 20.4702 1.42472V8.3534H9.95517C9.45703 8.3534 9.00665 8.64842 8.80764 9.10504L0.182534 28.8917C0.152483 28.9612 0.128667 29.0335 0.111585 29.1071C0.108468 29.1203 0.108717 29.1198 0.106472 29.1296C0.0888911 29.2129 0.0790405 29.3013 0.0790405 29.3899V39.2362C0.0790405 39.9265 0.640647 40.4881 1.33094 40.4881H2.47198V62.7481C2.47198 63.4384 3.03359 64 3.72387 64H60.2757C60.966 64 61.5276 63.4384 61.5276 62.7481V40.4881H62.6687C63.359 40.4881 63.9206 39.9265 63.9206 39.2362V29.3899C63.9208 29.3013 63.9111 29.2134 63.8935 29.1301ZM43.5296 18.0829H45.9374L47.0039 20.5295H43.5296V18.0829ZM4.34247 62.1296V40.4881H59.6574V62.1296H4.34247ZM62.0504 38.6177H1.94953V30.2591H53.2091C53.7256 30.2591 54.1443 29.8404 54.1443 29.3239C54.1443 28.8074 53.7256 28.3887 53.2091 28.3887H2.44205L10.3603 10.2239H20.4702V15.2775C20.4702 15.7939 20.8889 16.2127 21.4054 16.2127C21.9219 16.2127 22.3406 15.7939 22.3406 15.2775V1.87036H41.6593V20.5296H22.3406V15.2138C22.3406 14.6973 21.9219 14.2786 21.4054 14.2786C20.8889 14.2786 20.4702 14.6973 20.4702 15.2138V16.2127H17.8579C17.238 16.2127 16.6772 16.5799 16.4295 17.1482L15.0909 20.219C14.8802 20.7023 14.9268 21.2543 15.2157 21.6954C15.5047 22.1366 15.9919 22.3999 16.5193 22.3999H47.4803C48.0077 22.3999 48.4949 22.1366 48.7839 21.6954C49.0728 21.2543 49.1194 20.7024 48.9087 20.219L47.5701 17.1482C47.3224 16.5799 46.7616 16.2127 46.1417 16.2127H43.5294V10.2239H53.6393L61.5575 28.3887H52.9352C52.4187 28.3887 52 28.8074 52 29.3239C52 29.8404 52.4187 30.2591 52.9352 30.2591H62.0502L62.0504 38.6177ZM16.996 20.5296L18.0624 18.083H20.4702V20.5296H16.996Z" fill="black"/>
<path d="M29.5361 17.8341C30.0657 18.3639 30.9276 18.3639 31.4574 17.8341L38.7819 10.5097C39.0386 10.253 39.18 9.91189 39.18 9.54879C39.18 9.18569 39.0386 8.84466 38.782 8.58805L36.8514 6.65746C36.3217 6.12765 35.4597 6.12765 34.9301 6.65746L30.4968 11.0907L29.07 9.66388C28.5403 9.13419 27.6783 9.13419 27.1486 9.66388L25.2181 11.5943C24.9614 11.851 24.82 12.1921 24.82 12.5552C24.82 12.9183 24.9614 13.2593 25.218 13.5159L29.5361 17.8341ZM28.1092 11.3483L29.7286 12.9677C30.1532 13.3923 30.8405 13.3923 31.265 12.9677L35.8908 8.34191L37.0977 9.54891L30.4968 16.1498L26.9023 12.5553L28.1092 11.3483Z" fill="black"/>
</svg>
