<svg width="70" height="70" viewBox="0 0 70 70" fill="none" xmlns="http://www.w3.org/2000/svg">
<path d="M56.35 32.8969C55.9495 32.4963 55.4063 32.2715 54.8397 32.2715C54.2736 32.2715 53.7299 32.4963 53.3294 32.8969L50.3547 35.8721L48.6259 34.1428L57.4854 25.2839C58.1487 24.6302 58.5226 23.7378 58.5236 22.8064C58.5247 21.875 58.1525 20.982 57.4902 20.3268L49.7784 12.6139C48.4097 11.2504 46.1955 11.251 44.8272 12.615L35.9624 21.4793L34.1284 19.6453L37.1037 16.6706C37.9363 15.8359 37.9363 14.4847 37.1037 13.65L24.0785 0.62537C23.2443 -0.208294 21.8921 -0.208294 21.0579 0.62537L12.8323 8.85146C11.9992 9.68619 11.9992 11.0379 12.8323 11.8732L25.8559 24.8967C26.2553 25.2994 26.7995 25.5253 27.3667 25.5231H27.3689C27.935 25.5242 28.4781 25.2983 28.8776 24.8967L32.4787 21.2955L34.3127 23.1295L25.8228 31.6194C22.6537 31.6675 19.5978 32.8077 17.1721 34.8483C16.7107 35.2382 16.4335 35.8037 16.4073 36.4072C16.3828 37.0032 16.6081 37.5827 17.0295 38.0051L33.4187 54.3959C33.8197 54.7943 34.3618 55.0186 34.9268 55.0191C34.9567 55.0191 34.9877 55.0181 35.0171 55.0165C35.6206 54.9903 36.1856 54.7131 36.5755 54.2522C39.1833 51.1825 40.2984 47.1162 39.6207 43.1454L46.9757 35.792L48.7045 37.5207L45.1044 41.1214C44.7028 41.5214 44.4769 42.065 44.4763 42.6322C44.4763 43.1994 44.7017 43.743 45.1033 44.1436L58.1268 57.1677C58.9621 58.0002 60.3138 58.0002 61.1485 57.1677L69.3746 48.9416C70.2072 48.1068 70.2072 46.7557 69.3746 45.9215L56.35 32.8969ZM27.3667 23.1076L14.6209 10.3623L22.5677 2.415L35.3135 15.1608L27.3667 23.1076ZM34.9183 52.5956L18.8287 36.505C23.3773 32.8061 29.9868 33.1457 34.1322 37.2916C38.278 41.4375 38.6177 48.047 34.9183 52.5956ZM35.7856 35.6393C33.8908 33.7364 31.4768 32.4344 28.8461 31.896L36.7597 23.9824C36.7699 23.9728 36.7838 23.9701 36.7939 23.9599C36.8035 23.9498 36.8067 23.9365 36.8163 23.9263L46.4769 14.2652C46.9335 13.8107 47.6716 13.8102 48.1287 14.2641L55.8405 21.9759C56.0643 22.196 56.1903 22.4961 56.1903 22.8101C56.1887 23.1188 56.0627 23.4136 55.8405 23.6278L38.9301 40.5376C38.2449 38.6983 37.172 37.0278 35.7851 35.6393H35.7856ZM59.6382 55.3791L46.8924 42.6333L54.8392 34.6865L67.585 47.4323L59.6382 55.3791Z" fill="black"/>
<path d="M25.6668 67.6667C12.7859 67.6523 2.34772 57.2141 2.3333 44.3332C2.3333 43.6891 1.81099 43.1668 1.16692 43.1668C0.522308 43.1668 0 43.6891 0 44.3332C0.0160218 58.5023 11.4977 69.984 25.6668 70C26.3109 70 26.8332 69.4777 26.8332 68.8331C26.8332 68.189 26.3109 67.6667 25.6668 67.6667Z" fill="black"/>
<path d="M25.6668 60.6668C16.6503 60.6567 9.34334 53.3497 9.33319 44.3332C9.33319 43.6891 8.81088 43.1668 8.16681 43.1668C7.5222 43.1668 6.99989 43.6891 6.99989 44.3332C7.01164 54.6378 15.3622 62.9884 25.6668 63.0001C26.3109 63.0001 26.8332 62.4778 26.8332 61.8332C26.8332 61.1891 26.3109 60.6668 25.6668 60.6668Z" fill="black"/>
<path d="M25.6668 53.6669C20.5142 53.6605 16.3395 49.4858 16.3331 44.3332C16.3331 43.6891 15.8108 43.1668 15.1667 43.1668C14.5221 43.1668 13.9998 43.6891 13.9998 44.3332C14.0073 50.7734 19.2266 55.9927 25.6668 56.0002C26.3109 56.0002 26.8332 55.4779 26.8332 54.8333C26.8332 54.1892 26.3109 53.6669 25.6668 53.6669Z" fill="black"/>
</svg>
