<svg width="72" height="46" viewBox="0 0 72 46" fill="none" xmlns="http://www.w3.org/2000/svg">
<path d="M12.5316 15.5972C12.9389 15.462 13.2431 15.1197 13.3296 14.6993C13.4161 14.279 13.2717 13.8444 12.951 13.5593C12.6302 13.2743 12.1817 13.182 11.7744 13.3172C7.84951 14.6344 5.10509 18.1869 4.8216 22.3172C4.79888 22.6361 4.90429 22.9508 5.11447 23.1916C5.32465 23.4324 5.62222 23.5794 5.9412 23.6H6.0204C6.65383 23.6014 7.17922 23.1101 7.22039 22.478C7.43933 19.3211 9.53617 16.606 12.5352 15.596L12.5316 15.5972Z" fill="black"/>
<path d="M67.2 18.8H62.4C62.4 16.8118 60.7882 15.2 58.8 15.2H54.1884C51.8006 11.2842 47.7526 8.67601 43.2 8.12002V5.00002C43.2 2.68042 41.3196 0.800018 39 0.800018C36.6804 0.800018 34.8 2.68042 34.8 5.00002V8.00002H32.4V5.00002C32.4 2.68042 30.5196 0.800018 28.2 0.800018C25.8804 0.800018 24 2.68042 24 5.00002V8.00002H21.6V5.00002C21.6 2.68042 19.7196 0.800018 17.4 0.800018C15.0804 0.800018 13.2 2.68042 13.2 5.00002V8.12002C6.60835 8.92427 1.33001 13.9669 0.225599 20.5149C-0.87881 27.0629 2.4536 33.5578 8.4168 36.4796L7.2468 42.3296C7.21777 42.4847 7.2041 42.6423 7.206 42.8H1.2C0.537258 42.8 0 43.3373 0 44C0 44.6628 0.537258 45.2 1.2 45.2H70.8C71.4627 45.2 72 44.6628 72 44V23.6C72 20.9491 69.851 18.8 67.2 18.8ZM64.8 42.8H49.2C49.2019 42.6419 49.1882 42.4839 49.1592 42.3284L47.9856 36.4616C49.473 35.7333 50.8323 34.7684 52.0104 33.6044C53.1731 32.4351 54.1352 31.0822 54.858 29.6H58.8C60.7882 29.6 62.4 27.9882 62.4 26H64.8V42.8ZM58.8 17.6C59.4627 17.6 60 18.1373 60 18.8V26C60 26.6628 59.4627 27.2 58.8 27.2H55.8C56.1972 25.8354 56.3992 24.4213 56.4 23C56.3974 21.1522 56.0507 19.3209 55.3776 17.6H58.8ZM37.2 5.00002C37.2 4.00591 38.0059 3.20002 39 3.20002C39.9941 3.20002 40.8 4.00591 40.8 5.00002V8.00002H37.2V5.00002ZM26.4 5.00002C26.4 4.00591 27.2059 3.20002 28.2 3.20002C29.1941 3.20002 30 4.00591 30 5.00002V8.00002H26.4V5.00002ZM17.4 3.20002C17.8782 3.19745 18.3375 3.38626 18.6756 3.72439C19.0137 4.06251 19.2026 4.52185 19.2 5.00002L19.2 8.00002H15.6V5.00002C15.6 4.00591 16.4059 3.20002 17.4 3.20002ZM2.4 23C2.40397 16.0429 8.04286 10.404 15 10.4H41.4C46.495 10.4016 51.0876 13.4715 53.0372 18.1787C54.9868 22.886 53.9095 28.3041 50.3076 31.9076C49.4698 32.7361 48.5221 33.4455 47.4912 34.016L47.2332 32.7284C47.0055 31.6088 46.0225 30.8033 44.88 30.8H41.52C40.3775 30.8033 39.3945 31.6088 39.1668 32.7284L38.5932 35.6H17.8068L17.2332 32.7284C17.0055 31.6088 16.0225 30.8033 14.88 30.8H11.52C10.3775 30.8033 9.3945 31.6088 9.1668 32.7284L8.9076 34.0268C4.88436 31.8186 2.38842 27.5894 2.4 23ZM41.52 32V33.2V32ZM19.1532 42.3284L18.2868 38H38.1132L37.2468 42.3296C37.2178 42.4847 37.2041 42.6423 37.206 42.8H19.2C19.1999 42.6417 19.1842 42.4837 19.1532 42.3284ZM11.52 32V33.2V32ZM9.6 42.8L11.52 33.2H14.88L16.8 42.8H9.6ZM39.6 42.8L41.52 33.2H44.88L46.8 42.8H39.6ZM67.2 42.8V24.8C67.2 24.1373 66.6627 23.6 66 23.6H62.4V21.2H67.2C68.5255 21.2 69.6 22.2745 69.6 23.6V42.8H67.2Z" fill="black"/>
<path d="M26.346 32.8484C27.2516 33.0814 28.1829 33.1996 29.118 33.2C31.7138 33.3225 34.2129 32.2023 35.8488 30.1832C37.0672 28.4803 37.4891 26.3333 37.0056 24.296C36.6778 22.9768 36.12 21.7257 35.358 20.6C34.588 19.5131 33.6917 18.5213 32.688 17.6456L32.3388 17.3168C31.8442 16.8793 31.533 16.2711 31.4676 15.614C31.4556 15.5 31.4484 15.3824 31.4448 15.2672L31.3824 12.7724C31.37 12.2896 31.0694 11.8614 30.6196 11.6856C30.1698 11.5098 29.6585 11.6208 29.322 11.9672L27.6228 13.7216C27.4524 13.8968 27.2784 14.0684 27.078 14.2652C26.5949 14.7229 26.1416 15.2111 25.7208 15.7268C24.5516 16.9874 24.0999 18.7542 24.5208 20.4212C24.6671 20.872 24.8712 21.302 25.128 21.7004C25.2957 21.9439 25.4237 22.2124 25.5072 22.496C25.5396 22.6532 25.4916 22.7024 25.47 22.7252C25.4028 22.7924 25.2924 22.8296 25.0584 22.8236C24.8447 22.7618 24.6551 22.6362 24.5148 22.4636L23.2608 21.0392C22.9688 20.7075 22.5181 20.5631 22.0877 20.6634C21.6573 20.7638 21.3168 21.0925 21.2016 21.5192L20.6976 23.3804C19.9946 25.7308 20.4643 28.2758 21.96 30.2204C23.12 31.5229 24.6503 32.4399 26.346 32.8484ZM22.9488 24.2924C23.3824 24.7144 23.921 25.0127 24.5088 25.1564C25.4733 25.3783 26.4843 25.0923 27.1896 24.398C27.798 23.7674 28.0503 22.8741 27.8616 22.0184C27.7305 21.4655 27.5025 20.9403 27.1884 20.4668C27.0413 20.2413 26.9206 19.9997 26.8284 19.7468C26.65 18.8241 26.9424 17.8731 27.6084 17.21C27.9676 16.7752 28.3536 16.3632 28.764 15.9764L29.0652 15.6788C29.0652 15.7436 29.076 15.8072 29.082 15.8708C29.209 17.0957 29.7817 18.2313 30.6912 19.0616L31.0512 19.4C31.9176 20.1486 32.6925 20.9969 33.36 21.9272C33.9653 22.817 34.4089 23.8065 34.6704 24.8504C34.9956 26.2007 34.7212 27.6257 33.918 28.7588C32.7295 30.1581 30.9503 30.9143 29.118 30.7988C28.3894 30.7988 27.6636 30.7069 26.958 30.5252C25.7428 30.2409 24.6424 29.5949 23.802 28.6724C22.8638 27.4192 22.5495 25.8061 22.9488 24.2924Z" fill="black"/>
</svg>
