<svg width="25" height="20" viewBox="0 0 25 20" fill="none" xmlns="http://www.w3.org/2000/svg">
<path d="M24.9533 2.61583C24.8447 1.88989 24.4796 1.22688 23.9242 0.746987C23.3688 0.267094 22.6598 0.00208537 21.9258 0H3.07413C2.34012 0.00208537 1.63114 0.267094 1.07572 0.746987C0.520308 1.22688 0.155216 1.88989 0.0466309 2.61583L12.5 10.6742L24.9533 2.61583Z" fill="white"/>
<path d="M12.9525 12.3666C12.8177 12.4538 12.6605 12.5002 12.5 12.5002C12.3394 12.5002 12.1823 12.4538 12.0475 12.3666L0 4.57163V16.9258C0.000882327 17.7409 0.32505 18.5223 0.901377 19.0986C1.4777 19.6749 2.25912 19.9991 3.07417 20H21.9258C22.7409 19.9991 23.5223 19.6749 24.0986 19.0986C24.6749 18.5223 24.9991 17.7409 25 16.9258V4.5708L12.9525 12.3666Z" fill="white"/>
</svg>
