<svg width="25" height="25" viewBox="0 0 25 25" fill="none" xmlns="http://www.w3.org/2000/svg">
<path fill-rule="evenodd" clip-rule="evenodd" d="M2 0C0.895431 0 0 0.89543 0 2V23C0 24.1046 0.89543 25 2 25H10.5469V16.1133H7.37305V12.5H10.5469V9.74609C10.5469 6.61133 12.4121 4.88281 15.2686 4.88281C16.6357 4.88281 18.0664 5.12695 18.0664 5.12695V8.20312H16.4893C14.9365 8.20312 14.4531 9.16992 14.4531 10.1562V12.5H17.9199L17.3633 16.1133H14.4531V25H23C24.1046 25 25 24.1046 25 23V2C25 0.895431 24.1046 0 23 0H2Z" fill="white"/>
</svg>
