<svg width="31" height="23" viewBox="0 0 31 23" fill="none" xmlns="http://www.w3.org/2000/svg">
<path d="M20.9028 12.1778C20.9028 11.3213 21.5881 10.6361 22.4446 10.6361C23.3012 10.6361 23.9864 11.3213 23.9864 12.1778C23.9864 13.0343 23.3012 13.7195 22.4446 13.7195C21.5881 13.7195 20.9028 13.0057 20.9028 12.1778Z" fill="fill"/>
<path d="M30.2109 15.9181C30.1538 16.4034 30.0967 16.8888 29.9539 17.3456C29.5256 18.9729 28.5834 20.4574 27.0416 21.2854C24.9287 22.3702 22.4161 21.9705 20.3032 21.1426C18.5616 22.3702 18.5616 22.3702 18.5616 22.3702C18.1618 22.6272 17.6479 22.1989 17.8763 21.7707C17.3909 21.8563 17.2482 21.3996 17.3909 21.0284C16.9912 21.3425 16.6486 20.7715 16.877 20.4289C17.0197 20.2005 17.2482 19.9435 17.4195 19.7437C14.964 18.3448 12.7369 16.6318 10.4813 14.9474C11.7661 15.7468 16.9055 18.3733 18.1618 18.9158C19.4752 19.4867 20.7886 20.0577 22.1591 20.3718C23.3012 20.6287 24.7574 20.7715 25.8138 20.1148C26.7846 19.5438 27.1558 18.3733 27.2986 17.317C27.6412 15.0331 26.8417 12.4636 25.6425 10.5223C24.3862 8.49527 22.3305 6.66811 19.9892 6.06857C19.1326 5.84018 18.276 5.84018 17.4766 5.98293C15.6207 6.29697 13.9361 7.43894 12.6512 8.86641C10.7953 10.922 9.51049 13.4628 8.33985 15.9752C7.54039 17.6596 6.42685 21.7707 3.80004 20.1434C2.6294 19.4011 1.88704 18.1164 1.3731 16.8602C0.802053 15.5184 0.402321 13.7198 0.7735 12.2638C1.57296 9.209 5.8558 11.9212 7.31197 12.8919C7.22631 12.8633 3.80004 11.2931 2.54374 12.5207C1.97269 13.0917 2.00125 14.1195 2.0869 14.8618C2.25822 16.2036 2.91492 18.202 4.17122 18.9443C5.7987 19.8864 6.62671 16.9459 7.055 15.9181C7.7688 14.1766 8.45406 12.4351 9.25352 10.7221C10.1386 8.83786 11.1951 6.98215 12.6512 5.46904C12.3372 5.0979 11.8803 4.64111 11.8518 4.15577C11.7947 3.61334 12.3372 3.0138 12.9082 3.29929C12.2515 2.55701 13.1366 1.44359 13.9932 1.87183C13.5935 1.24374 14.2216 0.444362 14.8783 0.472912C15.2495 0.472912 15.6207 0.786953 15.9062 0.986798C16.6486 1.47214 17.3909 1.98602 18.1618 2.47136C25.2713 1.35794 30.839 9.43739 30.2109 15.9181Z" fill="fill"/>
</svg>
